<svg width="175" height="164" viewBox="0 0 175 164" fill="none" xmlns="http://www.w3.org/2000/svg">
<path d="M8.22792 33.8804L34.3261 44.8351V114.865C14.8961 109.715 5.53732 96.5166 6.37485 74.5226L16.916 75.7732C7.56767 67.9395 0.665142 53.0672 8.22792 33.8804Z" fill="white"/>
<path fill-rule="evenodd" clip-rule="evenodd" d="M36.2614 40.2248C38.1182 41.0042 39.3262 42.8214 39.3262 44.8351V114.865C39.3262 116.417 38.6055 117.881 37.3754 118.827C36.1454 119.774 34.5455 120.095 33.0452 119.698C22.4802 116.898 14.1447 111.757 8.64804 103.869C3.18105 96.0236 0.932408 86.0486 1.37856 74.3323C1.43167 72.9378 2.06517 71.6289 3.12594 70.7221C3.75761 70.1821 4.50655 69.8139 5.30173 69.6391C-0.279502 60.1104 -2.37054 47.1341 3.57632 32.0468C4.06958 30.7954 5.04625 29.7956 6.28572 29.273C7.52519 28.7505 8.92291 28.7494 10.1632 29.2701L36.2614 40.2248ZM11.5896 70.1062C6.009 62.5664 2.91013 51.7468 6.61973 38.6279C7.05828 37.077 7.59199 35.4939 8.22801 33.8804L34.3262 44.8351V114.865C32.578 114.401 30.9113 113.873 29.3262 113.279C14.6823 107.789 7.0052 96.6912 6.36676 79.5567C6.30626 77.933 6.30897 76.2551 6.37494 74.5226L16.9161 75.7732C15.004 74.1709 13.1942 72.2741 11.5896 70.1062Z" fill="black"/>
<path d="M166.602 33.8804L140.503 44.8351V114.865C159.933 109.715 169.292 96.5166 168.455 74.5226L157.914 75.7732C167.262 67.9395 174.164 53.0672 166.602 33.8804Z" fill="white"/>
<path fill-rule="evenodd" clip-rule="evenodd" d="M138.568 40.2248C136.711 41.0042 135.503 42.8214 135.503 44.8351V114.865C135.503 116.417 136.224 117.881 137.454 118.827C138.684 119.774 140.284 120.095 141.784 119.698C152.349 116.898 160.685 111.757 166.182 103.869C171.649 96.0236 173.897 86.0486 173.451 74.3323C173.398 72.9378 172.764 71.6289 171.704 70.7221C171.072 70.1821 170.323 69.8139 169.528 69.6391C175.109 60.1104 177.2 47.1341 171.253 32.0468C170.76 30.7954 169.783 29.7956 168.544 29.273C167.304 28.7505 165.907 28.7494 164.666 29.2701L138.568 40.2248ZM163.24 70.1062C168.821 62.5664 171.919 51.7468 168.21 38.6279C167.771 37.077 167.238 35.4939 166.602 33.8804L140.503 44.8351V114.865C142.252 114.401 143.918 113.873 145.503 113.279C160.147 107.789 167.824 96.6912 168.463 79.5567C168.523 77.933 168.521 76.2551 168.455 74.5226L157.914 75.7732C159.826 74.1709 161.635 72.2741 163.24 70.1062Z" fill="black"/>
<path d="M87.2565 26.958L111.123 52.8539L144.67 61.3517L134.989 95.7455L144.67 130.139L111.123 138.637L87.2566 163.817L63.3901 138.637L29.8428 130.139L39.5236 95.7455L29.8428 61.3517L63.3901 52.8539L87.2565 26.958Z" fill="black"/>
<path fill-rule="evenodd" clip-rule="evenodd" d="M87.0995 0L114.616 28.7747L153.294 38.2173L142.132 76.4346L153.294 114.652L114.616 124.094L87.0995 152.869L59.5831 124.094L20.9053 114.652L32.0667 76.4346L20.9053 38.2173L59.5831 28.7747L87.0995 0ZM62.448 33.7368L27.7971 42.1963L37.7964 76.4346L27.7971 110.673L62.448 119.132L87.0995 144.911L111.751 119.132L146.402 110.673L136.403 76.4346L146.402 42.1963L111.751 33.7368L87.0995 7.958L62.448 33.7368Z" fill="black"/>
<mask id="mask0_2002_19320" style="mask-type:alpha" maskUnits="userSpaceOnUse" x="27" y="7" width="120" height="138">
<path d="M87.0993 7.95801L111.751 33.7368L146.402 42.1963L136.402 76.4346L146.402 110.673L111.751 119.132L87.0993 144.911L62.4478 119.132L27.7969 110.673L37.7962 76.4346L27.7969 42.1963L62.4478 33.7368L87.0993 7.95801Z" fill="#D9D9D9"/>
</mask>
<g mask="url(#mask0_2002_19320)">
<path d="M-11.2822 61.9707L119.097 -13.304L150.003 40.2268L19.6238 115.501L-11.2822 61.9707Z" fill="#FFE35B"/>
<path d="M19.6235 115.502L150.003 40.2271L180.909 93.7578L50.5295 169.032L19.6235 115.502Z" fill="#FFB921"/>
<path d="M87.1006 77.385L26.3213 41.5829L87.1006 6.62158V77.385Z" fill="white"/>
<path d="M87.0996 76.4346L148.505 111.711L87.0996 147.198V76.4346Z" fill="#C95E40"/>
</g>
<path d="M128.56 78.2025C128.56 100.897 109.998 119.295 87.1008 119.295C64.2038 119.295 45.6421 100.897 45.6421 78.2025C45.6421 55.5077 64.2038 37.1099 87.1008 37.1099C109.998 37.1099 128.56 55.5077 128.56 78.2025Z" fill="#FFE35B"/>
<path d="M128.56 75.4086C128.56 98.1034 109.998 116.501 87.1008 116.501C64.2038 116.501 45.6421 98.1034 45.6421 75.4086C45.6421 52.7137 64.2038 34.3159 87.1008 34.3159C109.998 34.3159 128.56 52.7137 128.56 75.4086Z" fill="black"/>
<path d="M82.7757 50.2421C85.1637 54.0253 82.4187 60.0468 76.6444 63.6916C70.8702 67.3364 64.2534 67.2242 61.8654 63.4409C59.4774 59.6577 62.2224 53.6361 67.9966 49.9914C73.7709 46.3466 80.3877 46.4588 82.7757 50.2421Z" fill="white"/>
<g filter="url(#filter0_d_2002_19320)">
<mask id="path-15-outside-1_2002_19320" maskUnits="userSpaceOnUse" x="78" y="72" width="18" height="30" fill="black">
<rect fill="white" x="78" y="72" width="18" height="30"/>
<path d="M83.0658 94.12V79.88H80.2258C79.7724 79.88 79.4524 79.3067 79.2658 78.16C79.1858 77.6 79.1458 77.0267 79.1458 76.44C79.1458 75.8533 79.1858 75.28 79.2658 74.72C79.4524 73.5733 79.7724 73 80.2258 73H93.6658C94.1191 73 94.4258 73.5733 94.5858 74.72C94.6924 75.28 94.7458 75.8533 94.7458 76.44C94.7458 77.0267 94.6924 77.6 94.5858 78.16C94.4258 79.3067 94.1191 79.88 93.6658 79.88H90.9858V94.12H93.7858C94.2391 94.12 94.5591 94.6933 94.7458 95.84C94.8524 96.4 94.9058 96.9733 94.9058 97.56C94.9058 98.1467 94.8524 98.72 94.7458 99.28C94.5591 100.427 94.2391 101 93.7858 101H80.3058C79.8524 101 79.5458 100.427 79.3858 99.28C79.2791 98.72 79.2258 98.1467 79.2258 97.56C79.2258 96.9733 79.2791 96.4 79.3858 95.84C79.5458 94.6933 79.8524 94.12 80.3058 94.12H83.0658Z"/>
</mask>
<path d="M83.0658 94.12V79.88H80.2258C79.7724 79.88 79.4524 79.3067 79.2658 78.16C79.1858 77.6 79.1458 77.0267 79.1458 76.44C79.1458 75.8533 79.1858 75.28 79.2658 74.72C79.4524 73.5733 79.7724 73 80.2258 73H93.6658C94.1191 73 94.4258 73.5733 94.5858 74.72C94.6924 75.28 94.7458 75.8533 94.7458 76.44C94.7458 77.0267 94.6924 77.6 94.5858 78.16C94.4258 79.3067 94.1191 79.88 93.6658 79.88H90.9858V94.12H93.7858C94.2391 94.12 94.5591 94.6933 94.7458 95.84C94.8524 96.4 94.9058 96.9733 94.9058 97.56C94.9058 98.1467 94.8524 98.72 94.7458 99.28C94.5591 100.427 94.2391 101 93.7858 101H80.3058C79.8524 101 79.5458 100.427 79.3858 99.28C79.2791 98.72 79.2258 98.1467 79.2258 97.56C79.2258 96.9733 79.2791 96.4 79.3858 95.84C79.5458 94.6933 79.8524 94.12 80.3058 94.12H83.0658Z" fill="#FFB921"/>
<path d="M83.0658 94.12V94.82L83.7658 94.12H83.0658ZM83.0658 79.88H83.7658L83.0658 79.18V79.88ZM79.2658 78.16L78.5727 78.259L78.5749 78.2725L79.2658 78.16ZM79.2658 74.72L78.5747 74.6075L78.5728 74.621L79.2658 74.72ZM94.5858 74.72L93.8925 74.8167L93.8981 74.851L94.5858 74.72ZM94.5858 78.16L93.8981 78.029L93.8925 78.0633L94.5858 78.16ZM90.9858 79.88V79.18L90.2858 79.88H90.9858ZM90.9858 94.12H90.2858L90.9858 94.82V94.12ZM94.7458 95.84L94.0549 95.9525L94.0581 95.971L94.7458 95.84ZM94.7458 99.28L94.0581 99.149L94.0549 99.1675L94.7458 99.28ZM79.3858 99.28L80.0791 99.1833L80.0734 99.149L79.3858 99.28ZM79.3858 95.84L80.0734 95.971L80.0791 95.9367L79.3858 95.84ZM83.0658 94.12H83.7658V79.88H83.0658H82.3658V94.12H83.0658ZM83.0658 79.88V79.18H80.2258V79.88V80.58H83.0658V79.88ZM80.2258 79.88V79.18C80.358 79.18 80.3549 79.2842 80.257 79.1088C80.156 78.9279 80.0454 78.5925 79.9567 78.0475L79.2658 78.16L78.5749 78.2725C78.6728 78.8742 78.8155 79.3987 79.0345 79.7912C79.2567 80.1891 79.6403 80.58 80.2258 80.58V79.88ZM79.2658 78.16L79.9587 78.061C79.8836 77.535 79.8458 76.9948 79.8458 76.44H79.1458H78.4458C78.4458 77.0586 78.488 77.665 78.5728 78.259L79.2658 78.16ZM79.1458 76.44H79.8458C79.8458 75.8852 79.8836 75.345 79.9587 74.819L79.2658 74.72L78.5728 74.621C78.488 75.215 78.4458 75.8214 78.4458 76.44H79.1458ZM79.2658 74.72L79.9567 74.8325C80.0454 74.2875 80.156 73.9521 80.257 73.7712C80.3549 73.5958 80.358 73.7 80.2258 73.7V73V72.3C79.6403 72.3 79.2567 72.6909 79.0345 73.0888C78.8155 73.4813 78.6728 74.0058 78.5749 74.6075L79.2658 74.72ZM80.2258 73V73.7H93.6658V73V72.3H80.2258V73ZM93.6658 73V73.7C93.5289 73.7 93.5276 73.5901 93.6185 73.7602C93.7138 73.9382 93.8164 74.2716 93.8925 74.8167L94.5858 74.72L95.2791 74.6233C95.1951 74.0217 95.0645 73.4951 94.853 73.0998C94.6373 72.6965 94.256 72.3 93.6658 72.3V73ZM94.5858 74.72L93.8981 74.851C93.9964 75.3666 94.0458 75.896 94.0458 76.44H94.7458H95.4458C95.4458 75.8107 95.3885 75.1934 95.2734 74.589L94.5858 74.72ZM94.7458 76.44H94.0458C94.0458 76.984 93.9964 77.5134 93.8981 78.029L94.5858 78.16L95.2734 78.291C95.3885 77.6866 95.4458 77.0693 95.4458 76.44H94.7458ZM94.5858 78.16L93.8925 78.0633C93.8164 78.6084 93.7138 78.9418 93.6185 79.1198C93.5276 79.2899 93.5289 79.18 93.6658 79.18V79.88V80.58C94.256 80.58 94.6373 80.1835 94.853 79.7802C95.0645 79.3849 95.1951 78.8583 95.2791 78.2567L94.5858 78.16ZM93.6658 79.88V79.18H90.9858V79.88V80.58H93.6658V79.88ZM90.9858 79.88H90.2858V94.12H90.9858H91.6858V79.88H90.9858ZM90.9858 94.12V94.82H93.7858V94.12V93.42H90.9858V94.12ZM93.7858 94.12V94.82C93.6536 94.82 93.6567 94.7158 93.7545 94.8912C93.8555 95.0721 93.9662 95.4075 94.0549 95.9525L94.7458 95.84L95.4367 95.7275C95.3387 95.1258 95.196 94.6013 94.977 94.2088C94.7549 93.8109 94.3713 93.42 93.7858 93.42V94.12ZM94.7458 95.84L94.0581 95.971C94.1564 96.4866 94.2058 97.016 94.2058 97.56H94.9058H95.6058C95.6058 96.9307 95.5485 96.3134 95.4334 95.709L94.7458 95.84ZM94.9058 97.56H94.2058C94.2058 98.104 94.1564 98.6334 94.0581 99.149L94.7458 99.28L95.4334 99.411C95.5485 98.8066 95.6058 98.1893 95.6058 97.56H94.9058ZM94.7458 99.28L94.0549 99.1675C93.9662 99.7125 93.8555 100.048 93.7545 100.229C93.6567 100.404 93.6536 100.3 93.7858 100.3V101V101.7C94.3713 101.7 94.7549 101.309 94.977 100.911C95.196 100.519 95.3387 99.9942 95.4367 99.3925L94.7458 99.28ZM93.7858 101V100.3H80.3058V101V101.7H93.7858V101ZM80.3058 101V100.3C80.4427 100.3 80.444 100.41 80.353 100.24C80.2578 100.062 80.1551 99.7284 80.0791 99.1833L79.3858 99.28L78.6925 99.3767C78.7764 99.9783 78.9071 100.505 79.1185 100.9C79.3343 101.303 79.7155 101.7 80.3058 101.7V101ZM79.3858 99.28L80.0734 99.149C79.9752 98.6334 79.9258 98.104 79.9258 97.56H79.2258H78.5258C78.5258 98.1893 78.583 98.8066 78.6981 99.411L79.3858 99.28ZM79.2258 97.56H79.9258C79.9258 97.016 79.9752 96.4866 80.0734 95.971L79.3858 95.84L78.6981 95.709C78.583 96.3134 78.5258 96.9307 78.5258 97.56H79.2258ZM79.3858 95.84L80.0791 95.9367C80.1551 95.3916 80.2578 95.0582 80.353 94.8802C80.444 94.7101 80.4427 94.82 80.3058 94.82V94.12V93.42C79.7155 93.42 79.3343 93.8165 79.1185 94.2198C78.9071 94.6151 78.7764 95.1417 78.6925 95.7433L79.3858 95.84ZM80.3058 94.12V94.82H83.0658V94.12V93.42H80.3058V94.12Z" fill="#FFB921" mask="url(#path-15-outside-1_2002_19320)"/>
</g>
<defs>
<filter id="filter0_d_2002_19320" x="78.4458" y="72.2998" width="17.1602" height="30.4001" filterUnits="userSpaceOnUse" color-interpolation-filters="sRGB">
<feFlood flood-opacity="0" result="BackgroundImageFix"/>
<feColorMatrix in="SourceAlpha" type="matrix" values="0 0 0 0 0 0 0 0 0 0 0 0 0 0 0 0 0 0 127 0" result="hardAlpha"/>
<feOffset dy="1"/>
<feComposite in2="hardAlpha" operator="out"/>
<feColorMatrix type="matrix" values="0 0 0 0 0 0 0 0 0 0 0 0 0 0 0 0 0 0 1 0"/>
<feBlend mode="normal" in2="BackgroundImageFix" result="effect1_dropShadow_2002_19320"/>
<feBlend mode="normal" in="SourceGraphic" in2="effect1_dropShadow_2002_19320" result="shape"/>
</filter>
</defs>
</svg>
