<svg width="175" height="164" viewBox="0 0 175 164" fill="none" xmlns="http://www.w3.org/2000/svg">
<path d="M8.22792 33.8804L34.3261 44.8351V114.865C14.8961 109.715 5.53732 96.5166 6.37485 74.5226L16.916 75.7732C7.56767 67.9395 0.665142 53.0672 8.22792 33.8804Z" fill="white"/>
<path fill-rule="evenodd" clip-rule="evenodd" d="M36.2614 40.2248C38.1182 41.0042 39.3262 42.8214 39.3262 44.8351V114.865C39.3262 116.417 38.6055 117.881 37.3754 118.827C36.1454 119.774 34.5455 120.095 33.0452 119.698C22.4802 116.898 14.1447 111.757 8.64804 103.869C3.18105 96.0236 0.932408 86.0486 1.37856 74.3323C1.43167 72.9378 2.06517 71.6289 3.12594 70.7221C3.75761 70.1821 4.50655 69.8139 5.30173 69.6391C-0.279502 60.1104 -2.37054 47.1341 3.57632 32.0468C4.06958 30.7954 5.04625 29.7956 6.28572 29.273C7.52519 28.7505 8.92291 28.7494 10.1632 29.2701L36.2614 40.2248ZM11.5896 70.1062C6.009 62.5664 2.91013 51.7468 6.61973 38.6279C7.05828 37.077 7.59199 35.4939 8.22801 33.8804L34.3262 44.8351V114.865C32.578 114.401 30.9113 113.873 29.3262 113.279C14.6823 107.789 7.0052 96.6912 6.36676 79.5567C6.30626 77.933 6.30897 76.2551 6.37494 74.5226L16.9161 75.7732C15.004 74.1709 13.1942 72.2741 11.5896 70.1062Z" fill="black"/>
<path d="M166.602 33.8804L140.503 44.8351V114.865C159.933 109.715 169.292 96.5166 168.455 74.5226L157.914 75.7732C167.262 67.9395 174.164 53.0672 166.602 33.8804Z" fill="white"/>
<path fill-rule="evenodd" clip-rule="evenodd" d="M138.568 40.2248C136.711 41.0042 135.503 42.8214 135.503 44.8351V114.865C135.503 116.417 136.224 117.881 137.454 118.827C138.684 119.774 140.284 120.095 141.784 119.698C152.349 116.898 160.685 111.757 166.182 103.869C171.649 96.0236 173.897 86.0486 173.451 74.3323C173.398 72.9378 172.764 71.6289 171.704 70.7221C171.072 70.1821 170.323 69.8139 169.528 69.6391C175.109 60.1104 177.2 47.1341 171.253 32.0468C170.76 30.7954 169.783 29.7956 168.544 29.273C167.304 28.7505 165.907 28.7494 164.666 29.2701L138.568 40.2248ZM163.24 70.1062C168.821 62.5664 171.919 51.7468 168.21 38.6279C167.771 37.077 167.238 35.4939 166.602 33.8804L140.503 44.8351V114.865C142.252 114.401 143.918 113.873 145.503 113.279C160.147 107.789 167.824 96.6912 168.463 79.5567C168.523 77.933 168.521 76.2551 168.455 74.5226L157.914 75.7732C159.826 74.1709 161.635 72.2741 163.24 70.1062Z" fill="black"/>
<path d="M87.2565 26.958L111.123 52.8539L144.67 61.3517L134.989 95.7455L144.67 130.139L111.123 138.637L87.2566 163.817L63.3901 138.637L29.8428 130.139L39.5236 95.7455L29.8428 61.3517L63.3901 52.8539L87.2565 26.958Z" fill="black"/>
<path fill-rule="evenodd" clip-rule="evenodd" d="M87.0995 0L114.616 28.7747L153.294 38.2173L142.132 76.4346L153.294 114.652L114.616 124.094L87.0995 152.869L59.5831 124.094L20.9053 114.652L32.0667 76.4346L20.9053 38.2173L59.5831 28.7747L87.0995 0ZM62.448 33.7368L27.7971 42.1963L37.7964 76.4346L27.7971 110.673L62.448 119.132L87.0995 144.911L111.751 119.132L146.402 110.673L136.403 76.4346L146.402 42.1963L111.751 33.7368L87.0995 7.958L62.448 33.7368Z" fill="black"/>
<mask id="mask0_2002_19321" style="mask-type:alpha" maskUnits="userSpaceOnUse" x="27" y="7" width="120" height="138">
<path d="M87.0993 7.95801L111.751 33.7368L146.402 42.1963L136.402 76.4346L146.402 110.673L111.751 119.132L87.0993 144.911L62.4478 119.132L27.7969 110.673L37.7962 76.4346L27.7969 42.1963L62.4478 33.7368L87.0993 7.95801Z" fill="#D9D9D9"/>
</mask>
<g mask="url(#mask0_2002_19321)">
<path d="M-11.2822 61.9707L119.097 -13.304L150.003 40.2268L19.6238 115.501L-11.2822 61.9707Z" fill="#CCE2FE"/>
<path d="M19.6235 115.502L150.003 40.2271L180.909 93.7578L50.5295 169.032L19.6235 115.502Z" fill="#CADFFB"/>
<path d="M87.1006 77.385L26.3213 41.5829L87.1006 6.62158V77.385Z" fill="white"/>
<path d="M87.0996 76.4346L148.505 111.711L87.0996 147.198V76.4346Z" fill="#6676D2"/>
</g>
<path d="M128.56 78.2025C128.56 100.897 109.998 119.295 87.1008 119.295C64.2038 119.295 45.6421 100.897 45.6421 78.2025C45.6421 55.5077 64.2038 37.1099 87.1008 37.1099C109.998 37.1099 128.56 55.5077 128.56 78.2025Z" fill="#CCE2FE"/>
<path d="M128.56 75.4086C128.56 98.1034 109.998 116.501 87.1008 116.501C64.2038 116.501 45.6421 98.1034 45.6421 75.4086C45.6421 52.7137 64.2038 34.3159 87.1008 34.3159C109.998 34.3159 128.56 52.7137 128.56 75.4086Z" fill="black"/>
<path d="M82.7757 50.2421C85.1637 54.0253 82.4187 60.0468 76.6444 63.6916C70.8702 67.3364 64.2534 67.2242 61.8654 63.4409C59.4774 59.6577 62.2224 53.6361 67.9966 49.9914C73.7709 46.3466 80.3877 46.4588 82.7757 50.2421Z" fill="white"/>
<g filter="url(#filter0_d_2002_19321)">
<mask id="path-15-outside-1_2002_19321" maskUnits="userSpaceOnUse" x="69" y="72" width="36" height="30" fill="black">
<rect fill="white" x="69" y="72" width="36" height="30"/>
<path d="M73.6916 94.12V79.88H70.8516C70.3982 79.88 70.0782 79.3067 69.8916 78.16C69.8116 77.6 69.7716 77.0267 69.7716 76.44C69.7716 75.8533 69.8116 75.28 69.8916 74.72C70.0782 73.5733 70.3982 73 70.8516 73H84.2916C84.7449 73 85.0516 73.5733 85.2116 74.72C85.3182 75.28 85.3716 75.8533 85.3716 76.44C85.3716 77.0267 85.3182 77.6 85.2116 78.16C85.0516 79.3067 84.7449 79.88 84.2916 79.88H81.6116V94.12H84.4116C84.8649 94.12 85.1849 94.6933 85.3716 95.84C85.4782 96.4 85.5316 96.9733 85.5316 97.56C85.5316 98.1467 85.4782 98.72 85.3716 99.28C85.1849 100.427 84.8649 101 84.4116 101H70.9316C70.4782 101 70.1716 100.427 70.0116 99.28C69.9049 98.72 69.8516 98.1467 69.8516 97.56C69.8516 96.9733 69.9049 96.4 70.0116 95.84C70.1716 94.6933 70.4782 94.12 70.9316 94.12H73.6916ZM92.44 94.12V79.88H89.6C89.1467 79.88 88.8267 79.3067 88.64 78.16C88.56 77.6 88.52 77.0267 88.52 76.44C88.52 75.8533 88.56 75.28 88.64 74.72C88.8267 73.5733 89.1467 73 89.6 73H103.04C103.493 73 103.8 73.5733 103.96 74.72C104.067 75.28 104.12 75.8533 104.12 76.44C104.12 77.0267 104.067 77.6 103.96 78.16C103.8 79.3067 103.493 79.88 103.04 79.88H100.36V94.12H103.16C103.613 94.12 103.933 94.6933 104.12 95.84C104.227 96.4 104.28 96.9733 104.28 97.56C104.28 98.1467 104.227 98.72 104.12 99.28C103.933 100.427 103.613 101 103.16 101H89.68C89.2267 101 88.92 100.427 88.76 99.28C88.6533 98.72 88.6 98.1467 88.6 97.56C88.6 96.9733 88.6533 96.4 88.76 95.84C88.92 94.6933 89.2267 94.12 89.68 94.12H92.44Z"/>
</mask>
<path d="M73.6916 94.12V79.88H70.8516C70.3982 79.88 70.0782 79.3067 69.8916 78.16C69.8116 77.6 69.7716 77.0267 69.7716 76.44C69.7716 75.8533 69.8116 75.28 69.8916 74.72C70.0782 73.5733 70.3982 73 70.8516 73H84.2916C84.7449 73 85.0516 73.5733 85.2116 74.72C85.3182 75.28 85.3716 75.8533 85.3716 76.44C85.3716 77.0267 85.3182 77.6 85.2116 78.16C85.0516 79.3067 84.7449 79.88 84.2916 79.88H81.6116V94.12H84.4116C84.8649 94.12 85.1849 94.6933 85.3716 95.84C85.4782 96.4 85.5316 96.9733 85.5316 97.56C85.5316 98.1467 85.4782 98.72 85.3716 99.28C85.1849 100.427 84.8649 101 84.4116 101H70.9316C70.4782 101 70.1716 100.427 70.0116 99.28C69.9049 98.72 69.8516 98.1467 69.8516 97.56C69.8516 96.9733 69.9049 96.4 70.0116 95.84C70.1716 94.6933 70.4782 94.12 70.9316 94.12H73.6916ZM92.44 94.12V79.88H89.6C89.1467 79.88 88.8267 79.3067 88.64 78.16C88.56 77.6 88.52 77.0267 88.52 76.44C88.52 75.8533 88.56 75.28 88.64 74.72C88.8267 73.5733 89.1467 73 89.6 73H103.04C103.493 73 103.8 73.5733 103.96 74.72C104.067 75.28 104.12 75.8533 104.12 76.44C104.12 77.0267 104.067 77.6 103.96 78.16C103.8 79.3067 103.493 79.88 103.04 79.88H100.36V94.12H103.16C103.613 94.12 103.933 94.6933 104.12 95.84C104.227 96.4 104.28 96.9733 104.28 97.56C104.28 98.1467 104.227 98.72 104.12 99.28C103.933 100.427 103.613 101 103.16 101H89.68C89.2267 101 88.92 100.427 88.76 99.28C88.6533 98.72 88.6 98.1467 88.6 97.56C88.6 96.9733 88.6533 96.4 88.76 95.84C88.92 94.6933 89.2267 94.12 89.68 94.12H92.44Z" fill="#CADFFB"/>
<path d="M73.6916 94.12V94.82L74.3916 94.12H73.6916ZM73.6916 79.88H74.3916L73.6916 79.18V79.88ZM69.8916 78.16L69.1985 78.259L69.2007 78.2725L69.8916 78.16ZM69.8916 74.72L69.2005 74.6075L69.1986 74.621L69.8916 74.72ZM85.2116 74.72L84.5183 74.8167L84.5239 74.851L85.2116 74.72ZM85.2116 78.16L84.5239 78.029L84.5183 78.0633L85.2116 78.16ZM81.6116 79.88V79.18L80.9116 79.88H81.6116ZM81.6116 94.12H80.9116L81.6116 94.82V94.12ZM85.3716 95.84L84.6807 95.9525L84.6839 95.971L85.3716 95.84ZM85.3716 99.28L84.6839 99.149L84.6807 99.1675L85.3716 99.28ZM70.0116 99.28L70.7048 99.1833L70.6992 99.149L70.0116 99.28ZM70.0116 95.84L70.6992 95.971L70.7048 95.9367L70.0116 95.84ZM73.6916 94.12H74.3916V79.88H73.6916H72.9916V94.12H73.6916ZM73.6916 79.88V79.18H70.8516V79.88V80.58H73.6916V79.88ZM70.8516 79.88V79.18C70.9837 79.18 70.9807 79.2842 70.8828 79.1088C70.7818 78.9279 70.6712 78.5925 70.5825 78.0475L69.8916 78.16L69.2007 78.2725C69.2986 78.8742 69.4413 79.3987 69.6603 79.7912C69.8824 80.1891 70.266 80.58 70.8516 80.58V79.88ZM69.8916 78.16L70.5845 78.061C70.5094 77.535 70.4716 76.9948 70.4716 76.44H69.7716H69.0716C69.0716 77.0586 69.1137 77.665 69.1986 78.259L69.8916 78.16ZM69.7716 76.44H70.4716C70.4716 75.8852 70.5094 75.345 70.5845 74.819L69.8916 74.72L69.1986 74.621C69.1137 75.215 69.0716 75.8214 69.0716 76.44H69.7716ZM69.8916 74.72L70.5825 74.8325C70.6712 74.2875 70.7818 73.9521 70.8828 73.7712C70.9807 73.5958 70.9837 73.7 70.8516 73.7V73V72.3C70.266 72.3 69.8824 72.6909 69.6603 73.0888C69.4413 73.4813 69.2986 74.0058 69.2007 74.6075L69.8916 74.72ZM70.8516 73V73.7H84.2916V73V72.3H70.8516V73ZM84.2916 73V73.7C84.1547 73.7 84.1534 73.5901 84.2443 73.7602C84.3396 73.9382 84.4422 74.2716 84.5183 74.8167L85.2116 74.72L85.9048 74.6233C85.8209 74.0217 85.6902 73.4951 85.4788 73.0998C85.2631 72.6965 84.8818 72.3 84.2916 72.3V73ZM85.2116 74.72L84.5239 74.851C84.6221 75.3666 84.6716 75.896 84.6716 76.44H85.3716H86.0716C86.0716 75.8107 86.0143 75.1934 85.8992 74.589L85.2116 74.72ZM85.3716 76.44H84.6716C84.6716 76.984 84.6221 77.5134 84.5239 78.029L85.2116 78.16L85.8992 78.291C86.0143 77.6866 86.0716 77.0693 86.0716 76.44H85.3716ZM85.2116 78.16L84.5183 78.0633C84.4422 78.6084 84.3396 78.9418 84.2443 79.1198C84.1534 79.2899 84.1547 79.18 84.2916 79.18V79.88V80.58C84.8818 80.58 85.2631 80.1835 85.4788 79.7802C85.6902 79.3849 85.8209 78.8583 85.9048 78.2567L85.2116 78.16ZM84.2916 79.88V79.18H81.6116V79.88V80.58H84.2916V79.88ZM81.6116 79.88H80.9116V94.12H81.6116H82.3116V79.88H81.6116ZM81.6116 94.12V94.82H84.4116V94.12V93.42H81.6116V94.12ZM84.4116 94.12V94.82C84.2794 94.82 84.2825 94.7158 84.3803 94.8912C84.4813 95.0721 84.5919 95.4075 84.6807 95.9525L85.3716 95.84L86.0625 95.7275C85.9645 95.1258 85.8218 94.6013 85.6028 94.2088C85.3807 93.8109 84.9971 93.42 84.4116 93.42V94.12ZM85.3716 95.84L84.6839 95.971C84.7821 96.4866 84.8316 97.016 84.8316 97.56H85.5316H86.2316C86.2316 96.9307 86.1743 96.3134 86.0592 95.709L85.3716 95.84ZM85.5316 97.56H84.8316C84.8316 98.104 84.7821 98.6334 84.6839 99.149L85.3716 99.28L86.0592 99.411C86.1743 98.8066 86.2316 98.1893 86.2316 97.56H85.5316ZM85.3716 99.28L84.6807 99.1675C84.5919 99.7125 84.4813 100.048 84.3803 100.229C84.2825 100.404 84.2794 100.3 84.4116 100.3V101V101.7C84.9971 101.7 85.3807 101.309 85.6028 100.911C85.8218 100.519 85.9645 99.9942 86.0625 99.3925L85.3716 99.28ZM84.4116 101V100.3H70.9316V101V101.7H84.4116V101ZM70.9316 101V100.3C71.0685 100.3 71.0698 100.41 70.9788 100.24C70.8836 100.062 70.7809 99.7284 70.7048 99.1833L70.0116 99.28L69.3183 99.3767C69.4022 99.9783 69.5329 100.505 69.7443 100.9C69.96 101.303 70.3413 101.7 70.9316 101.7V101ZM70.0116 99.28L70.6992 99.149C70.601 98.6334 70.5516 98.104 70.5516 97.56H69.8516H69.1516C69.1516 98.1893 69.2088 98.8066 69.3239 99.411L70.0116 99.28ZM69.8516 97.56H70.5516C70.5516 97.016 70.601 96.4866 70.6992 95.971L70.0116 95.84L69.3239 95.709C69.2088 96.3134 69.1516 96.9307 69.1516 97.56H69.8516ZM70.0116 95.84L70.7048 95.9367C70.7809 95.3916 70.8836 95.0582 70.9788 94.8802C71.0698 94.7101 71.0685 94.82 70.9316 94.82V94.12V93.42C70.3413 93.42 69.96 93.8165 69.7443 94.2198C69.5329 94.6151 69.4022 95.1417 69.3183 95.7433L70.0116 95.84ZM70.9316 94.12V94.82H73.6916V94.12V93.42H70.9316V94.12ZM92.44 94.12V94.82L93.14 94.12H92.44ZM92.44 79.88H93.14L92.44 79.18V79.88ZM88.64 78.16L87.9469 78.259L87.9491 78.2725L88.64 78.16ZM88.64 74.72L87.949 74.6075L87.947 74.621L88.64 74.72ZM103.96 74.72L103.267 74.8167L103.272 74.851L103.96 74.72ZM103.96 78.16L103.272 78.029L103.267 78.0633L103.96 78.16ZM100.36 79.88V79.18L99.66 79.88H100.36ZM100.36 94.12H99.66L100.36 94.82V94.12ZM104.12 95.84L103.429 95.9525L103.432 95.971L104.12 95.84ZM104.12 99.28L103.432 99.149L103.429 99.1675L104.12 99.28ZM88.76 99.28L89.4533 99.1833L89.4476 99.149L88.76 99.28ZM88.76 95.84L89.4476 95.971L89.4533 95.9367L88.76 95.84ZM92.44 94.12H93.14V79.88H92.44H91.74V94.12H92.44ZM92.44 79.88V79.18H89.6V79.88V80.58H92.44V79.88ZM89.6 79.88V79.18C89.7322 79.18 89.7291 79.2842 89.6312 79.1088C89.5303 78.9279 89.4196 78.5925 89.3309 78.0475L88.64 78.16L87.9491 78.2725C88.047 78.8742 88.1897 79.3987 88.4088 79.7912C88.6309 80.1891 89.0145 80.58 89.6 80.58V79.88ZM88.64 78.16L89.333 78.061C89.2578 77.535 89.22 76.9948 89.22 76.44H88.52H87.82C87.82 77.0586 87.8622 77.665 87.947 78.259L88.64 78.16ZM88.52 76.44H89.22C89.22 75.8852 89.2578 75.345 89.333 74.819L88.64 74.72L87.947 74.621C87.8622 75.215 87.82 75.8214 87.82 76.44H88.52ZM88.64 74.72L89.3309 74.8325C89.4196 74.2875 89.5303 73.9521 89.6312 73.7712C89.7291 73.5958 89.7322 73.7 89.6 73.7V73V72.3C89.0145 72.3 88.6309 72.6909 88.4088 73.0888C88.1897 73.4813 88.047 74.0058 87.9491 74.6075L88.64 74.72ZM89.6 73V73.7H103.04V73V72.3H89.6V73ZM103.04 73V73.7C102.903 73.7 102.902 73.5901 102.993 73.7602C103.088 73.9382 103.191 74.2716 103.267 74.8167L103.96 74.72L104.653 74.6233C104.569 74.0217 104.439 73.4951 104.227 73.0998C104.012 72.6965 103.63 72.3 103.04 72.3V73ZM103.96 74.72L103.272 74.851C103.371 75.3666 103.42 75.896 103.42 76.44H104.12H104.82C104.82 75.8107 104.763 75.1934 104.648 74.589L103.96 74.72ZM104.12 76.44H103.42C103.42 76.984 103.371 77.5134 103.272 78.029L103.96 78.16L104.648 78.291C104.763 77.6866 104.82 77.0693 104.82 76.44H104.12ZM103.96 78.16L103.267 78.0633C103.191 78.6084 103.088 78.9418 102.993 79.1198C102.902 79.2899 102.903 79.18 103.04 79.18V79.88V80.58C103.63 80.58 104.012 80.1835 104.227 79.7802C104.439 79.3849 104.569 78.8583 104.653 78.2567L103.96 78.16ZM103.04 79.88V79.18H100.36V79.88V80.58H103.04V79.88ZM100.36 79.88H99.66V94.12H100.36H101.06V79.88H100.36ZM100.36 94.12V94.82H103.16V94.12V93.42H100.36V94.12ZM103.16 94.12V94.82C103.028 94.82 103.031 94.7158 103.129 94.8912C103.23 95.0721 103.34 95.4075 103.429 95.9525L104.12 95.84L104.811 95.7275C104.713 95.1258 104.57 94.6013 104.351 94.2088C104.129 93.8109 103.746 93.42 103.16 93.42V94.12ZM104.12 95.84L103.432 95.971C103.531 96.4866 103.58 97.016 103.58 97.56H104.28H104.98C104.98 96.9307 104.923 96.3134 104.808 95.709L104.12 95.84ZM104.28 97.56H103.58C103.58 98.104 103.531 98.6334 103.432 99.149L104.12 99.28L104.808 99.411C104.923 98.8066 104.98 98.1893 104.98 97.56H104.28ZM104.12 99.28L103.429 99.1675C103.34 99.7125 103.23 100.048 103.129 100.229C103.031 100.404 103.028 100.3 103.16 100.3V101V101.7C103.746 101.7 104.129 101.309 104.351 100.911C104.57 100.519 104.713 99.9942 104.811 99.3925L104.12 99.28ZM103.16 101V100.3H89.68V101V101.7H103.16V101ZM89.68 101V100.3C89.8169 100.3 89.8182 100.41 89.7273 100.24C89.632 100.062 89.5293 99.7284 89.4533 99.1833L88.76 99.28L88.0667 99.3767C88.1507 99.9783 88.2813 100.505 88.4928 100.9C88.7085 101.303 89.0898 101.7 89.68 101.7V101ZM88.76 99.28L89.4476 99.149C89.3494 98.6334 89.3 98.104 89.3 97.56H88.6H87.9C87.9 98.1893 87.9572 98.8066 88.0724 99.411L88.76 99.28ZM88.6 97.56H89.3C89.3 97.016 89.3494 96.4866 89.4476 95.971L88.76 95.84L88.0724 95.709C87.9572 96.3134 87.9 96.9307 87.9 97.56H88.6ZM88.76 95.84L89.4533 95.9367C89.5293 95.3916 89.632 95.0582 89.7273 94.8802C89.8182 94.7101 89.8169 94.82 89.68 94.82V94.12V93.42C89.0898 93.42 88.7085 93.8165 88.4928 94.2198C88.2813 94.6151 88.1507 95.1417 88.0667 95.7433L88.76 95.84ZM89.68 94.12V94.82H92.44V94.12V93.42H89.68V94.12Z" fill="#CADFFB" mask="url(#path-15-outside-1_2002_19321)"/>
</g>
<defs>
<filter id="filter0_d_2002_19321" x="69.0718" y="72.2998" width="35.9082" height="30.4001" filterUnits="userSpaceOnUse" color-interpolation-filters="sRGB">
<feFlood flood-opacity="0" result="BackgroundImageFix"/>
<feColorMatrix in="SourceAlpha" type="matrix" values="0 0 0 0 0 0 0 0 0 0 0 0 0 0 0 0 0 0 127 0" result="hardAlpha"/>
<feOffset dy="1"/>
<feComposite in2="hardAlpha" operator="out"/>
<feColorMatrix type="matrix" values="0 0 0 0 0 0 0 0 0 0 0 0 0 0 0 0 0 0 1 0"/>
<feBlend mode="normal" in2="BackgroundImageFix" result="effect1_dropShadow_2002_19321"/>
<feBlend mode="normal" in="SourceGraphic" in2="effect1_dropShadow_2002_19321" result="shape"/>
</filter>
</defs>
</svg>
