<svg width="175" height="164" viewBox="0 0 175 164" fill="none" xmlns="http://www.w3.org/2000/svg">
<path d="M8.22792 33.8804L34.3261 44.8351V114.865C14.8961 109.715 5.53732 96.5166 6.37485 74.5226L16.916 75.7732C7.56767 67.9395 0.665142 53.0672 8.22792 33.8804Z" fill="white"/>
<path fill-rule="evenodd" clip-rule="evenodd" d="M36.2614 40.2248C38.1182 41.0042 39.3262 42.8214 39.3262 44.8351V114.865C39.3262 116.417 38.6055 117.881 37.3754 118.827C36.1454 119.774 34.5455 120.095 33.0452 119.698C22.4802 116.898 14.1447 111.757 8.64804 103.869C3.18105 96.0236 0.932408 86.0486 1.37856 74.3323C1.43167 72.9378 2.06517 71.6289 3.12594 70.7221C3.75761 70.1821 4.50655 69.8139 5.30173 69.6391C-0.279502 60.1104 -2.37054 47.1341 3.57632 32.0468C4.06958 30.7954 5.04625 29.7956 6.28572 29.273C7.52519 28.7505 8.92291 28.7494 10.1632 29.2701L36.2614 40.2248ZM11.5896 70.1062C6.009 62.5664 2.91013 51.7468 6.61973 38.6279C7.05828 37.077 7.59199 35.4939 8.22801 33.8804L34.3262 44.8351V114.865C32.578 114.401 30.9113 113.873 29.3262 113.279C14.6823 107.789 7.0052 96.6912 6.36676 79.5567C6.30626 77.933 6.30897 76.2551 6.37494 74.5226L16.9161 75.7732C15.004 74.1709 13.1942 72.2741 11.5896 70.1062Z" fill="black"/>
<path d="M166.602 33.8804L140.503 44.8351V114.865C159.933 109.715 169.292 96.5166 168.455 74.5226L157.914 75.7732C167.262 67.9395 174.164 53.0672 166.602 33.8804Z" fill="white"/>
<path fill-rule="evenodd" clip-rule="evenodd" d="M138.568 40.2248C136.711 41.0042 135.503 42.8214 135.503 44.8351V114.865C135.503 116.417 136.224 117.881 137.454 118.827C138.684 119.774 140.284 120.095 141.784 119.698C152.349 116.898 160.685 111.757 166.182 103.869C171.649 96.0236 173.897 86.0486 173.451 74.3323C173.398 72.9378 172.764 71.6289 171.704 70.7221C171.072 70.1821 170.323 69.8139 169.528 69.6391C175.109 60.1104 177.2 47.1341 171.253 32.0468C170.76 30.7954 169.783 29.7956 168.544 29.273C167.304 28.7505 165.907 28.7494 164.666 29.2701L138.568 40.2248ZM163.24 70.1062C168.821 62.5664 171.919 51.7468 168.21 38.6279C167.771 37.077 167.238 35.4939 166.602 33.8804L140.503 44.8351V114.865C142.252 114.401 143.918 113.873 145.503 113.279C160.147 107.789 167.824 96.6912 168.463 79.5567C168.523 77.933 168.521 76.2551 168.455 74.5226L157.914 75.7732C159.826 74.1709 161.635 72.2741 163.24 70.1062Z" fill="black"/>
<path d="M87.2565 26.958L111.123 52.8539L144.67 61.3517L134.989 95.7455L144.67 130.139L111.123 138.637L87.2566 163.817L63.3901 138.637L29.8428 130.139L39.5236 95.7455L29.8428 61.3517L63.3901 52.8539L87.2565 26.958Z" fill="black"/>
<path fill-rule="evenodd" clip-rule="evenodd" d="M87.0995 0L114.616 28.7747L153.294 38.2173L142.132 76.4346L153.294 114.652L114.616 124.094L87.0995 152.869L59.5831 124.094L20.9053 114.652L32.0667 76.4346L20.9053 38.2173L59.5831 28.7747L87.0995 0ZM62.448 33.7368L27.7971 42.1963L37.7964 76.4346L27.7971 110.673L62.448 119.132L87.0995 144.911L111.751 119.132L146.402 110.673L136.403 76.4346L146.402 42.1963L111.751 33.7368L87.0995 7.958L62.448 33.7368Z" fill="black"/>
<mask id="mask0_2002_19341" style="mask-type:alpha" maskUnits="userSpaceOnUse" x="27" y="7" width="120" height="138">
<path d="M87.0993 7.95801L111.751 33.7368L146.402 42.1963L136.402 76.4346L146.402 110.673L111.751 119.132L87.0993 144.911L62.4478 119.132L27.7969 110.673L37.7962 76.4346L27.7969 42.1963L62.4478 33.7368L87.0993 7.95801Z" fill="#D9D9D9"/>
</mask>
<g mask="url(#mask0_2002_19341)">
<path d="M-11.2822 61.9707L119.097 -13.304L150.003 40.2268L19.6238 115.501L-11.2822 61.9707Z" fill="#F99611"/>
<path d="M19.6235 115.502L150.003 40.2271L180.909 93.7578L50.5295 169.032L19.6235 115.502Z" fill="#E97D15"/>
<path d="M87.1006 77.385L26.3213 41.5829L87.1006 6.62158V77.385Z" fill="white"/>
<path d="M87.0996 76.4346L148.505 111.711L87.0996 147.198V76.4346Z" fill="#660138"/>
</g>
<path d="M128.56 78.2025C128.56 100.897 109.998 119.295 87.1008 119.295C64.2038 119.295 45.6421 100.897 45.6421 78.2025C45.6421 55.5077 64.2038 37.1099 87.1008 37.1099C109.998 37.1099 128.56 55.5077 128.56 78.2025Z" fill="#F99611"/>
<path d="M128.56 75.4086C128.56 98.1034 109.998 116.501 87.1008 116.501C64.2038 116.501 45.6421 98.1034 45.6421 75.4086C45.6421 52.7137 64.2038 34.3159 87.1008 34.3159C109.998 34.3159 128.56 52.7137 128.56 75.4086Z" fill="black"/>
<path d="M82.7757 50.2421C85.1637 54.0253 82.4187 60.0468 76.6444 63.6916C70.8702 67.3364 64.2534 67.2242 61.8654 63.4409C59.4774 59.6577 62.2224 53.6361 67.9966 49.9914C73.7709 46.3466 80.3877 46.4588 82.7757 50.2421Z" fill="white"/>
<g filter="url(#filter0_d_2002_19341)">
<mask id="path-15-outside-1_2002_19341" maskUnits="userSpaceOnUse" x="60" y="72" width="55" height="30" fill="black">
<rect fill="white" x="60" y="72" width="55" height="30"/>
<path d="M64.8173 94.12V79.88H61.9773C61.524 79.88 61.204 79.3067 61.0173 78.16C60.9373 77.6 60.8973 77.0267 60.8973 76.44C60.8973 75.8533 60.9373 75.28 61.0173 74.72C61.204 73.5733 61.524 73 61.9773 73H75.4173C75.8707 73 76.1773 73.5733 76.3373 74.72C76.444 75.28 76.4973 75.8533 76.4973 76.44C76.4973 77.0267 76.444 77.6 76.3373 78.16C76.1773 79.3067 75.8707 79.88 75.4173 79.88H72.7373V94.12H75.5373C75.9907 94.12 76.3107 94.6933 76.4973 95.84C76.604 96.4 76.6573 96.9733 76.6573 97.56C76.6573 98.1467 76.604 98.72 76.4973 99.28C76.3107 100.427 75.9907 101 75.5373 101H62.0573C61.604 101 61.2973 100.427 61.1373 99.28C61.0307 98.72 60.9773 98.1467 60.9773 97.56C60.9773 96.9733 61.0307 96.4 61.1373 95.84C61.2973 94.6933 61.604 94.12 62.0573 94.12H64.8173ZM83.5658 94.12V79.88H80.7258C80.2724 79.88 79.9524 79.3067 79.7658 78.16C79.6858 77.6 79.6458 77.0267 79.6458 76.44C79.6458 75.8533 79.6858 75.28 79.7658 74.72C79.9524 73.5733 80.2724 73 80.7258 73H94.1658C94.6191 73 94.9258 73.5733 95.0858 74.72C95.1924 75.28 95.2458 75.8533 95.2458 76.44C95.2458 77.0267 95.1924 77.6 95.0858 78.16C94.9258 79.3067 94.6191 79.88 94.1658 79.88H91.4858V94.12H94.2858C94.7391 94.12 95.0591 94.6933 95.2458 95.84C95.3524 96.4 95.4058 96.9733 95.4058 97.56C95.4058 98.1467 95.3524 98.72 95.2458 99.28C95.0591 100.427 94.7391 101 94.2858 101H80.8058C80.3524 101 80.0458 100.427 79.8858 99.28C79.7791 98.72 79.7258 98.1467 79.7258 97.56C79.7258 96.9733 79.7791 96.4 79.8858 95.84C80.0458 94.6933 80.3524 94.12 80.8058 94.12H83.5658ZM102.314 94.12V79.88H99.4742C99.0209 79.88 98.7009 79.3067 98.5142 78.16C98.4342 77.6 98.3942 77.0267 98.3942 76.44C98.3942 75.8533 98.4342 75.28 98.5142 74.72C98.7009 73.5733 99.0209 73 99.4742 73H112.914C113.368 73 113.674 73.5733 113.834 74.72C113.941 75.28 113.994 75.8533 113.994 76.44C113.994 77.0267 113.941 77.6 113.834 78.16C113.674 79.3067 113.368 79.88 112.914 79.88H110.234V94.12H113.034C113.488 94.12 113.808 94.6933 113.994 95.84C114.101 96.4 114.154 96.9733 114.154 97.56C114.154 98.1467 114.101 98.72 113.994 99.28C113.808 100.427 113.488 101 113.034 101H99.5542C99.1009 101 98.7942 100.427 98.6342 99.28C98.5276 98.72 98.4742 98.1467 98.4742 97.56C98.4742 96.9733 98.5276 96.4 98.6342 95.84C98.7942 94.6933 99.1009 94.12 99.5542 94.12H102.314Z"/>
</mask>
<path d="M64.8173 94.12V79.88H61.9773C61.524 79.88 61.204 79.3067 61.0173 78.16C60.9373 77.6 60.8973 77.0267 60.8973 76.44C60.8973 75.8533 60.9373 75.28 61.0173 74.72C61.204 73.5733 61.524 73 61.9773 73H75.4173C75.8707 73 76.1773 73.5733 76.3373 74.72C76.444 75.28 76.4973 75.8533 76.4973 76.44C76.4973 77.0267 76.444 77.6 76.3373 78.16C76.1773 79.3067 75.8707 79.88 75.4173 79.88H72.7373V94.12H75.5373C75.9907 94.12 76.3107 94.6933 76.4973 95.84C76.604 96.4 76.6573 96.9733 76.6573 97.56C76.6573 98.1467 76.604 98.72 76.4973 99.28C76.3107 100.427 75.9907 101 75.5373 101H62.0573C61.604 101 61.2973 100.427 61.1373 99.28C61.0307 98.72 60.9773 98.1467 60.9773 97.56C60.9773 96.9733 61.0307 96.4 61.1373 95.84C61.2973 94.6933 61.604 94.12 62.0573 94.12H64.8173ZM83.5658 94.12V79.88H80.7258C80.2724 79.88 79.9524 79.3067 79.7658 78.16C79.6858 77.6 79.6458 77.0267 79.6458 76.44C79.6458 75.8533 79.6858 75.28 79.7658 74.72C79.9524 73.5733 80.2724 73 80.7258 73H94.1658C94.6191 73 94.9258 73.5733 95.0858 74.72C95.1924 75.28 95.2458 75.8533 95.2458 76.44C95.2458 77.0267 95.1924 77.6 95.0858 78.16C94.9258 79.3067 94.6191 79.88 94.1658 79.88H91.4858V94.12H94.2858C94.7391 94.12 95.0591 94.6933 95.2458 95.84C95.3524 96.4 95.4058 96.9733 95.4058 97.56C95.4058 98.1467 95.3524 98.72 95.2458 99.28C95.0591 100.427 94.7391 101 94.2858 101H80.8058C80.3524 101 80.0458 100.427 79.8858 99.28C79.7791 98.72 79.7258 98.1467 79.7258 97.56C79.7258 96.9733 79.7791 96.4 79.8858 95.84C80.0458 94.6933 80.3524 94.12 80.8058 94.12H83.5658ZM102.314 94.12V79.88H99.4742C99.0209 79.88 98.7009 79.3067 98.5142 78.16C98.4342 77.6 98.3942 77.0267 98.3942 76.44C98.3942 75.8533 98.4342 75.28 98.5142 74.72C98.7009 73.5733 99.0209 73 99.4742 73H112.914C113.368 73 113.674 73.5733 113.834 74.72C113.941 75.28 113.994 75.8533 113.994 76.44C113.994 77.0267 113.941 77.6 113.834 78.16C113.674 79.3067 113.368 79.88 112.914 79.88H110.234V94.12H113.034C113.488 94.12 113.808 94.6933 113.994 95.84C114.101 96.4 114.154 96.9733 114.154 97.56C114.154 98.1467 114.101 98.72 113.994 99.28C113.808 100.427 113.488 101 113.034 101H99.5542C99.1009 101 98.7942 100.427 98.6342 99.28C98.5276 98.72 98.4742 98.1467 98.4742 97.56C98.4742 96.9733 98.5276 96.4 98.6342 95.84C98.7942 94.6933 99.1009 94.12 99.5542 94.12H102.314Z" fill="#E97D15"/>
<path d="M64.8173 94.12V94.82L65.5173 94.12H64.8173ZM64.8173 79.88H65.5173L64.8173 79.18V79.88ZM61.0173 78.16L60.3242 78.259L60.3264 78.2725L61.0173 78.16ZM61.0173 74.72L60.3263 74.6075L60.3244 74.621L61.0173 74.72ZM76.3373 74.72L75.6441 74.8167L75.6497 74.851L76.3373 74.72ZM76.3373 78.16L75.6497 78.029L75.6441 78.0633L76.3373 78.16ZM72.7373 79.88V79.18L72.0373 79.88H72.7373ZM72.7373 94.12H72.0373L72.7373 94.82V94.12ZM76.4973 95.84L75.8064 95.9525L75.8097 95.971L76.4973 95.84ZM76.4973 99.28L75.8097 99.149L75.8064 99.1675L76.4973 99.28ZM61.1373 99.28L61.8306 99.1833L61.825 99.149L61.1373 99.28ZM61.1373 95.84L61.825 95.971L61.8306 95.9367L61.1373 95.84ZM64.8173 94.12H65.5173V79.88H64.8173H64.1173V94.12H64.8173ZM64.8173 79.88V79.18H61.9773V79.88V80.58H64.8173V79.88ZM61.9773 79.88V79.18C62.1095 79.18 62.1065 79.2842 62.0086 79.1088C61.9076 78.9279 61.797 78.5925 61.7082 78.0475L61.0173 78.16L60.3264 78.2725C60.4244 78.8742 60.5671 79.3987 60.7861 79.7912C61.0082 80.1891 61.3918 80.58 61.9773 80.58V79.88ZM61.0173 78.16L61.7103 78.061C61.6352 77.535 61.5973 76.9948 61.5973 76.44H60.8973H60.1973C60.1973 77.0586 60.2395 77.665 60.3244 78.259L61.0173 78.16ZM60.8973 76.44H61.5973C61.5973 75.8852 61.6352 75.345 61.7103 74.819L61.0173 74.72L60.3244 74.621C60.2395 75.215 60.1973 75.8214 60.1973 76.44H60.8973ZM61.0173 74.72L61.7082 74.8325C61.797 74.2875 61.9076 73.9521 62.0086 73.7712C62.1065 73.5958 62.1095 73.7 61.9773 73.7V73V72.3C61.3918 72.3 61.0082 72.6909 60.7861 73.0888C60.5671 73.4813 60.4244 74.0058 60.3264 74.6075L61.0173 74.72ZM61.9773 73V73.7H75.4173V73V72.3H61.9773V73ZM75.4173 73V73.7C75.2804 73.7 75.2792 73.5901 75.3701 73.7602C75.4653 73.9382 75.568 74.2716 75.6441 74.8167L76.3373 74.72L77.0306 74.6233C76.9467 74.0217 76.816 73.4951 76.6046 73.0998C76.3889 72.6965 76.0076 72.3 75.4173 72.3V73ZM76.3373 74.72L75.6497 74.851C75.7479 75.3666 75.7973 75.896 75.7973 76.44H76.4973H77.1973C77.1973 75.8107 77.1401 75.1934 77.025 74.589L76.3373 74.72ZM76.4973 76.44H75.7973C75.7973 76.984 75.7479 77.5134 75.6497 78.029L76.3373 78.16L77.025 78.291C77.1401 77.6866 77.1973 77.0693 77.1973 76.44H76.4973ZM76.3373 78.16L75.6441 78.0633C75.568 78.6084 75.4653 78.9418 75.3701 79.1198C75.2792 79.2899 75.2804 79.18 75.4173 79.18V79.88V80.58C76.0076 80.58 76.3889 80.1835 76.6046 79.7802C76.816 79.3849 76.9467 78.8583 77.0306 78.2567L76.3373 78.16ZM75.4173 79.88V79.18H72.7373V79.88V80.58H75.4173V79.88ZM72.7373 79.88H72.0373V94.12H72.7373H73.4373V79.88H72.7373ZM72.7373 94.12V94.82H75.5373V94.12V93.42H72.7373V94.12ZM75.5373 94.12V94.82C75.4052 94.82 75.4082 94.7158 75.5061 94.8912C75.6071 95.0721 75.7177 95.4075 75.8064 95.9525L76.4973 95.84L77.1882 95.7275C77.0903 95.1258 76.9476 94.6013 76.7286 94.2088C76.5065 93.8109 76.1229 93.42 75.5373 93.42V94.12ZM76.4973 95.84L75.8097 95.971C75.9079 96.4866 75.9573 97.016 75.9573 97.56H76.6573H77.3573C77.3573 96.9307 77.3001 96.3134 77.185 95.709L76.4973 95.84ZM76.6573 97.56H75.9573C75.9573 98.104 75.9079 98.6334 75.8097 99.149L76.4973 99.28L77.185 99.411C77.3001 98.8066 77.3573 98.1893 77.3573 97.56H76.6573ZM76.4973 99.28L75.8064 99.1675C75.7177 99.7125 75.6071 100.048 75.5061 100.229C75.4082 100.404 75.4052 100.3 75.5373 100.3V101V101.7C76.1229 101.7 76.5065 101.309 76.7286 100.911C76.9476 100.519 77.0903 99.9942 77.1882 99.3925L76.4973 99.28ZM75.5373 101V100.3H62.0573V101V101.7H75.5373V101ZM62.0573 101V100.3C62.1942 100.3 62.1955 100.41 62.1046 100.24C62.0094 100.062 61.9067 99.7284 61.8306 99.1833L61.1373 99.28L60.4441 99.3767C60.528 99.9783 60.6587 100.505 60.8701 100.9C61.0858 101.303 61.4671 101.7 62.0573 101.7V101ZM61.1373 99.28L61.825 99.149C61.7268 98.6334 61.6773 98.104 61.6773 97.56H60.9773H60.2773C60.2773 98.1893 60.3346 98.8066 60.4497 99.411L61.1373 99.28ZM60.9773 97.56H61.6773C61.6773 97.016 61.7268 96.4866 61.825 95.971L61.1373 95.84L60.4497 95.709C60.3346 96.3134 60.2773 96.9307 60.2773 97.56H60.9773ZM61.1373 95.84L61.8306 95.9367C61.9067 95.3916 62.0094 95.0582 62.1046 94.8802C62.1955 94.7101 62.1942 94.82 62.0573 94.82V94.12V93.42C61.4671 93.42 61.0858 93.8165 60.8701 94.2198C60.6587 94.6151 60.528 95.1417 60.4441 95.7433L61.1373 95.84ZM62.0573 94.12V94.82H64.8173V94.12V93.42H62.0573V94.12ZM83.5658 94.12V94.82L84.2658 94.12H83.5658ZM83.5658 79.88H84.2658L83.5658 79.18V79.88ZM79.7658 78.16L79.0727 78.259L79.0749 78.2725L79.7658 78.16ZM79.7658 74.72L79.0747 74.6075L79.0728 74.621L79.7658 74.72ZM95.0858 74.72L94.3925 74.8167L94.3981 74.851L95.0858 74.72ZM95.0858 78.16L94.3981 78.029L94.3925 78.0633L95.0858 78.16ZM91.4858 79.88V79.18L90.7858 79.88H91.4858ZM91.4858 94.12H90.7858L91.4858 94.82V94.12ZM95.2458 95.84L94.5549 95.9525L94.5581 95.971L95.2458 95.84ZM95.2458 99.28L94.5581 99.149L94.5549 99.1675L95.2458 99.28ZM79.8858 99.28L80.5791 99.1833L80.5734 99.149L79.8858 99.28ZM79.8858 95.84L80.5734 95.971L80.5791 95.9367L79.8858 95.84ZM83.5658 94.12H84.2658V79.88H83.5658H82.8658V94.12H83.5658ZM83.5658 79.88V79.18H80.7258V79.88V80.58H83.5658V79.88ZM80.7258 79.88V79.18C80.858 79.18 80.8549 79.2842 80.757 79.1088C80.656 78.9279 80.5454 78.5925 80.4567 78.0475L79.7658 78.16L79.0749 78.2725C79.1728 78.8742 79.3155 79.3987 79.5345 79.7912C79.7567 80.1891 80.1403 80.58 80.7258 80.58V79.88ZM79.7658 78.16L80.4587 78.061C80.3836 77.535 80.3458 76.9948 80.3458 76.44H79.6458H78.9458C78.9458 77.0586 78.988 77.665 79.0728 78.259L79.7658 78.16ZM79.6458 76.44H80.3458C80.3458 75.8852 80.3836 75.345 80.4587 74.819L79.7658 74.72L79.0728 74.621C78.988 75.215 78.9458 75.8214 78.9458 76.44H79.6458ZM79.7658 74.72L80.4567 74.8325C80.5454 74.2875 80.656 73.9521 80.757 73.7712C80.8549 73.5958 80.858 73.7 80.7258 73.7V73V72.3C80.1403 72.3 79.7567 72.6909 79.5345 73.0888C79.3155 73.4813 79.1728 74.0058 79.0749 74.6075L79.7658 74.72ZM80.7258 73V73.7H94.1658V73V72.3H80.7258V73ZM94.1658 73V73.7C94.0289 73.7 94.0276 73.5901 94.1185 73.7602C94.2138 73.9382 94.3164 74.2716 94.3925 74.8167L95.0858 74.72L95.7791 74.6233C95.6951 74.0217 95.5645 73.4951 95.353 73.0998C95.1373 72.6965 94.756 72.3 94.1658 72.3V73ZM95.0858 74.72L94.3981 74.851C94.4964 75.3666 94.5458 75.896 94.5458 76.44H95.2458H95.9458C95.9458 75.8107 95.8885 75.1934 95.7734 74.589L95.0858 74.72ZM95.2458 76.44H94.5458C94.5458 76.984 94.4964 77.5134 94.3981 78.029L95.0858 78.16L95.7734 78.291C95.8885 77.6866 95.9458 77.0693 95.9458 76.44H95.2458ZM95.0858 78.16L94.3925 78.0633C94.3164 78.6084 94.2138 78.9418 94.1185 79.1198C94.0276 79.2899 94.0289 79.18 94.1658 79.18V79.88V80.58C94.756 80.58 95.1373 80.1835 95.353 79.7802C95.5645 79.3849 95.6951 78.8583 95.7791 78.2567L95.0858 78.16ZM94.1658 79.88V79.18H91.4858V79.88V80.58H94.1658V79.88ZM91.4858 79.88H90.7858V94.12H91.4858H92.1858V79.88H91.4858ZM91.4858 94.12V94.82H94.2858V94.12V93.42H91.4858V94.12ZM94.2858 94.12V94.82C94.1536 94.82 94.1567 94.7158 94.2545 94.8912C94.3555 95.0721 94.4662 95.4075 94.5549 95.9525L95.2458 95.84L95.9367 95.7275C95.8387 95.1258 95.696 94.6013 95.477 94.2088C95.2549 93.8109 94.8713 93.42 94.2858 93.42V94.12ZM95.2458 95.84L94.5581 95.971C94.6564 96.4866 94.7058 97.016 94.7058 97.56H95.4058H96.1058C96.1058 96.9307 96.0485 96.3134 95.9334 95.709L95.2458 95.84ZM95.4058 97.56H94.7058C94.7058 98.104 94.6564 98.6334 94.5581 99.149L95.2458 99.28L95.9334 99.411C96.0485 98.8066 96.1058 98.1893 96.1058 97.56H95.4058ZM95.2458 99.28L94.5549 99.1675C94.4662 99.7125 94.3555 100.048 94.2545 100.229C94.1567 100.404 94.1536 100.3 94.2858 100.3V101V101.7C94.8713 101.7 95.2549 101.309 95.477 100.911C95.696 100.519 95.8387 99.9942 95.9367 99.3925L95.2458 99.28ZM94.2858 101V100.3H80.8058V101V101.7H94.2858V101ZM80.8058 101V100.3C80.9427 100.3 80.944 100.41 80.853 100.24C80.7578 100.062 80.6551 99.7284 80.5791 99.1833L79.8858 99.28L79.1925 99.3767C79.2764 99.9783 79.4071 100.505 79.6185 100.9C79.8343 101.303 80.2155 101.7 80.8058 101.7V101ZM79.8858 99.28L80.5734 99.149C80.4752 98.6334 80.4258 98.104 80.4258 97.56H79.7258H79.0258C79.0258 98.1893 79.083 98.8066 79.1981 99.411L79.8858 99.28ZM79.7258 97.56H80.4258C80.4258 97.016 80.4752 96.4866 80.5734 95.971L79.8858 95.84L79.1981 95.709C79.083 96.3134 79.0258 96.9307 79.0258 97.56H79.7258ZM79.8858 95.84L80.5791 95.9367C80.6551 95.3916 80.7578 95.0582 80.853 94.8802C80.944 94.7101 80.9427 94.82 80.8058 94.82V94.12V93.42C80.2155 93.42 79.8343 93.8165 79.6185 94.2198C79.4071 94.6151 79.2764 95.1417 79.1925 95.7433L79.8858 95.84ZM80.8058 94.12V94.82H83.5658V94.12V93.42H80.8058V94.12ZM102.314 94.12V94.82L103.014 94.12H102.314ZM102.314 79.88H103.014L102.314 79.18V79.88ZM98.5142 78.16L97.8211 78.259L97.8233 78.2725L98.5142 78.16ZM98.5142 74.72L97.8232 74.6075L97.8213 74.621L98.5142 74.72ZM113.834 74.72L113.141 74.8167L113.147 74.851L113.834 74.72ZM113.834 78.16L113.147 78.029L113.141 78.0633L113.834 78.16ZM110.234 79.88V79.18L109.534 79.88H110.234ZM110.234 94.12H109.534L110.234 94.82V94.12ZM113.994 95.84L113.303 95.9525L113.307 95.971L113.994 95.84ZM113.994 99.28L113.307 99.149L113.303 99.1675L113.994 99.28ZM98.6342 99.28L99.3275 99.1833L99.3219 99.149L98.6342 99.28ZM98.6342 95.84L99.3219 95.971L99.3275 95.9367L98.6342 95.84ZM102.314 94.12H103.014V79.88H102.314H101.614V94.12H102.314ZM102.314 79.88V79.18H99.4742V79.88V80.58H102.314V79.88ZM99.4742 79.88V79.18C99.6064 79.18 99.6033 79.2842 99.5055 79.1088C99.4045 78.9279 99.2938 78.5925 99.2051 78.0475L98.5142 78.16L97.8233 78.2725C97.9213 78.8742 98.064 79.3987 98.283 79.7912C98.5051 80.1891 98.8887 80.58 99.4742 80.58V79.88ZM98.5142 78.16L99.2072 78.061C99.132 77.535 99.0942 76.9948 99.0942 76.44H98.3942H97.6942C97.6942 77.0586 97.7364 77.665 97.8213 78.259L98.5142 78.16ZM98.3942 76.44H99.0942C99.0942 75.8852 99.132 75.345 99.2072 74.819L98.5142 74.72L97.8213 74.621C97.7364 75.215 97.6942 75.8214 97.6942 76.44H98.3942ZM98.5142 74.72L99.2051 74.8325C99.2938 74.2875 99.4045 73.9521 99.5055 73.7712C99.6033 73.5958 99.6064 73.7 99.4742 73.7V73V72.3C98.8887 72.3 98.5051 72.6909 98.283 73.0888C98.064 73.4813 97.9213 74.0058 97.8233 74.6075L98.5142 74.72ZM99.4742 73V73.7H112.914V73V72.3H99.4742V73ZM112.914 73V73.7C112.777 73.7 112.776 73.5901 112.867 73.7602C112.962 73.9382 113.065 74.2716 113.141 74.8167L113.834 74.72L114.528 74.6233C114.444 74.0217 114.313 73.4951 114.101 73.0998C113.886 72.6965 113.504 72.3 112.914 72.3V73ZM113.834 74.72L113.147 74.851C113.245 75.3666 113.294 75.896 113.294 76.44H113.994H114.694C114.694 75.8107 114.637 75.1934 114.522 74.589L113.834 74.72ZM113.994 76.44H113.294C113.294 76.984 113.245 77.5134 113.147 78.029L113.834 78.16L114.522 78.291C114.637 77.6866 114.694 77.0693 114.694 76.44H113.994ZM113.834 78.16L113.141 78.0633C113.065 78.6084 112.962 78.9418 112.867 79.1198C112.776 79.2899 112.777 79.18 112.914 79.18V79.88V80.58C113.504 80.58 113.886 80.1835 114.101 79.7802C114.313 79.3849 114.444 78.8583 114.528 78.2567L113.834 78.16ZM112.914 79.88V79.18H110.234V79.88V80.58H112.914V79.88ZM110.234 79.88H109.534V94.12H110.234H110.934V79.88H110.234ZM110.234 94.12V94.82H113.034V94.12V93.42H110.234V94.12ZM113.034 94.12V94.82C112.902 94.82 112.905 94.7158 113.003 94.8912C113.104 95.0721 113.215 95.4075 113.303 95.9525L113.994 95.84L114.685 95.7275C114.587 95.1258 114.444 94.6013 114.225 94.2088C114.003 93.8109 113.62 93.42 113.034 93.42V94.12ZM113.994 95.84L113.307 95.971C113.405 96.4866 113.454 97.016 113.454 97.56H114.154H114.854C114.854 96.9307 114.797 96.3134 114.682 95.709L113.994 95.84ZM114.154 97.56H113.454C113.454 98.104 113.405 98.6334 113.307 99.149L113.994 99.28L114.682 99.411C114.797 98.8066 114.854 98.1893 114.854 97.56H114.154ZM113.994 99.28L113.303 99.1675C113.215 99.7125 113.104 100.048 113.003 100.229C112.905 100.404 112.902 100.3 113.034 100.3V101V101.7C113.62 101.7 114.003 101.309 114.225 100.911C114.444 100.519 114.587 99.9942 114.685 99.3925L113.994 99.28ZM113.034 101V100.3H99.5542V101V101.7H113.034V101ZM99.5542 101V100.3C99.6911 100.3 99.6924 100.41 99.6015 100.24C99.5062 100.062 99.4036 99.7284 99.3275 99.1833L98.6342 99.28L97.9409 99.3767C98.0249 99.9783 98.1555 100.505 98.367 100.9C98.5827 101.303 98.964 101.7 99.5542 101.7V101ZM98.6342 99.28L99.3219 99.149C99.2236 98.6334 99.1742 98.104 99.1742 97.56H98.4742H97.7742C97.7742 98.1893 97.8315 98.8066 97.9466 99.411L98.6342 99.28ZM98.4742 97.56H99.1742C99.1742 97.016 99.2236 96.4866 99.3219 95.971L98.6342 95.84L97.9466 95.709C97.8315 96.3134 97.7742 96.9307 97.7742 97.56H98.4742ZM98.6342 95.84L99.3275 95.9367C99.4036 95.3916 99.5062 95.0582 99.6015 94.8802C99.6924 94.7101 99.6911 94.82 99.5542 94.82V94.12V93.42C98.964 93.42 98.5827 93.8165 98.367 94.2198C98.1555 94.6151 98.0249 95.1417 97.9409 95.7433L98.6342 95.84ZM99.5542 94.12V94.82H102.314V94.12V93.42H99.5542V94.12Z" fill="#E97D15" mask="url(#path-15-outside-1_2002_19341)"/>
</g>
<defs>
<filter id="filter0_d_2002_19341" x="60.1973" y="72.2998" width="54.6567" height="30.4001" filterUnits="userSpaceOnUse" color-interpolation-filters="sRGB">
<feFlood flood-opacity="0" result="BackgroundImageFix"/>
<feColorMatrix in="SourceAlpha" type="matrix" values="0 0 0 0 0 0 0 0 0 0 0 0 0 0 0 0 0 0 127 0" result="hardAlpha"/>
<feOffset dy="1"/>
<feComposite in2="hardAlpha" operator="out"/>
<feColorMatrix type="matrix" values="0 0 0 0 0 0 0 0 0 0 0 0 0 0 0 0 0 0 1 0"/>
<feBlend mode="normal" in2="BackgroundImageFix" result="effect1_dropShadow_2002_19341"/>
<feBlend mode="normal" in="SourceGraphic" in2="effect1_dropShadow_2002_19341" result="shape"/>
</filter>
</defs>
</svg>
